<?xml version="1.0" standalone="no"?>
<!DOCTYPE svg PUBLIC "-//W3C//DTD SVG 20010904//EN"
 "http://www.w3.org/TR/2001/REC-SVG-20010904/DTD/svg10.dtd">
<svg version="1.0" xmlns="http://www.w3.org/2000/svg"
 width="220.000000pt" height="30.000000pt" viewBox="0 0 220.000000 30.000000"
 preserveAspectRatio="xMidYMid meet">

<g transform="translate(0.000000,30.000000) scale(0.100000,-0.100000)"
fill="#000000" stroke="none">
<path d="M0 195 l0 -105 105 0 c79 0 103 3 100 13 -4 9 -30 11 -95 9 -65 -3
-90 0 -90 9 0 25 65 129 81 129 12 0 16 6 12 20 -5 18 0 20 50 20 l56 0 55
-99 c31 -54 56 -104 56 -110 0 -7 -7 -25 -15 -41 l-16 -30 -134 0 c-127 0
-135 1 -149 22 l-16 22 0 -27 0 -27 1100 0 1100 0 0 150 0 150 -1100 0 -1100
0 0 -105z m640 40 c0 -25 1 -25 84 -25 46 0 92 -3 101 -6 13 -5 15 -2 9 20 -6
24 -4 26 30 26 29 0 36 -4 36 -20 0 -17 7 -20 44 -20 24 0 51 -3 60 -6 12 -5
16 0 16 20 0 22 4 26 30 26 24 0 30 -4 30 -23 0 -20 4 -22 45 -19 30 3 45 9
45 18 0 9 11 14 30 14 19 0 30 -5 30 -14 0 -11 23 -15 107 -18 156 -5 193 0
193 23 0 15 7 19 34 19 l33 0 -5 -70 -5 -70 27 0 c25 0 26 3 26 50 l0 50 59 0
c33 0 63 -5 66 -10 4 -7 12 -7 25 0 10 5 39 10 64 10 34 0 46 4 46 15 0 10 10
15 30 15 20 0 30 -5 30 -15 0 -8 7 -15 15 -15 8 0 15 -9 15 -20 0 -11 -7 -20
-15 -20 -10 0 -15 -11 -15 -35 0 -25 4 -35 16 -35 9 0 14 -7 12 -17 -4 -20
-60 -24 -195 -15 l-73 5 0 44 c0 27 -4 42 -10 38 -5 -3 -10 -24 -10 -46 l0
-39 -87 -2 c-49 0 -130 -2 -181 -3 -70 -2 -97 1 -108 12 -27 28 -10 73 27 73
10 0 20 4 23 8 3 5 -12 6 -32 3 -35 -6 -37 -8 -40 -48 l-3 -41 -47 -5 c-44 -4
-87 -4 -224 1 l-58 2 0 39 c0 22 -4 43 -10 46 -6 4 -10 -12 -10 -39 l0 -46
-85 0 -85 0 -2 48 -2 47 -3 -47 c-4 -46 -6 -48 -34 -48 -28 0 -29 2 -31 48
l-2 47 -3 -46 -4 -46 -67 -6 c-98 -8 -163 2 -169 24 -7 25 -39 24 -46 -1 -4
-15 -14 -20 -36 -20 -38 0 -38 4 -2 100 26 72 29 75 62 78 34 3 36 1 48 -39
12 -40 13 -41 27 -20 9 12 26 21 40 21 19 0 24 5 24 25 0 21 5 25 30 25 25 0
30 -4 30 -25z"/>
<path d="M1140 160 c19 -13 30 -13 30 0 0 6 -10 10 -22 10 -19 0 -20 -2 -8
-10z"/>
<path d="M1233 135 c0 -22 2 -30 4 -17 2 12 2 30 0 40 -3 9 -5 -1 -4 -23z"/>
<path d="M1500 160 c19 -13 30 -13 30 0 0 6 -10 10 -22 10 -19 0 -20 -2 -8
-10z"/>
<path d="M563 144 c-3 -8 -1 -20 6 -27 8 -8 11 -4 11 16 0 30 -7 35 -17 11z"/>
<path d="M1080 122 c0 -6 9 -12 20 -15 11 -3 20 -3 20 -1 0 2 -9 8 -20 14 -11
6 -20 7 -20 2z"/>
<path d="M1458 113 c7 -3 16 -2 19 1 4 3 -2 6 -13 5 -11 0 -14 -3 -6 -6z"/>
<path d="M1834 112 c5 -8 66 -4 66 4 0 2 -16 4 -36 4 -19 0 -33 -4 -30 -8z"/>
</g>
</svg>
